<svg xmlns="http://www.w3.org/2000/svg" enable-background="new 0 0 5320 3547" viewBox="0 0 5320 3547"><rect width="5320" height="3547" fill="#FFF" display="none"/><path fill="#EDF6FF" d="M984.19,2952.72c-195.67-140.3-226.82-418.74-233.51-478.52c-45.78-409.07,206.57-873.28,508.61-936.23
				c217.36-45.3,333.27,143.72,467.03,62.42c184.76-112.31,5.65-498.49,204.72-821.8c210.91-342.52,752.26-461.74,959.65-270.47
				c138.47,127.71,65.49,336.15,201.53,412.63c168.64,94.81,336.92-193.94,601.38-156.04c347.56,49.81,522.18,615.23,531,644.96
				c113.2,381.36-179.86,527.45-94.37,927.56c73.42,343.62,316.9,493.8,252.71,610.28c-50.41,91.47-231.25,54.54-451.03,32.94
				c-170.8-16.79,73.75,18.81-1018.83,31.21c-1444.29,16.38-1163.06-53.87-1390.69-16.47
				C1341.32,3024.95,1149.98,3071.6,984.19,2952.72z"/><path fill="#A9E1FF" d="M2619.98,2759.53c10.2,0.6,231.88,258.54,398.63,84.09c166.74-174.45,129.12-222.55,84.49-209.49
							c-44.63,13.06-347.55,85.98-274.78,27.74s303-35.09,347.65-110.07s138.36-354.55,65.89-368.59
							c-72.46-14.04-195.26,80.36-220.39,97.6c-25.13,17.24-50.11-113.45,137.02-153.13c187.13-39.68,132.18-262.54,0.13-371.52
							c-132.05-108.98-325.1-37.52-364.5,50.49c-39.4,88.01,70.06,182.92,2.92,219.74c-67.14,36.82-44.3-121.14-96.69-151.72
							c-52.39-30.58-262.26,142.96-238.58,239.44c23.68,96.47,153.6,140.39,158.23,297.98c4.63,157.59-61.06-31.1-113.02-108.18
							c-51.96-77.08-113.47-173.47-129.11-62.95S2366.82,2744.72,2619.98,2759.53z"/><path fill="#73AFD1" d="M1829.74,3105.17l1.36-42.38c356.9,11.48,651.51-145,875.66-465.1
							c168.36-240.43,231.43-487.98,232.05-490.46l41.14,10.25c-2.58,10.36-65.19,256.63-237.7,503.45
							c-101.7,145.5-220.52,260.32-353.17,341.27C2222.83,3063.66,2034.64,3111.76,1829.74,3105.17z"/><polygon fill="#73AFD1" points="2936.74 2112.84 3034.17 1899.05 2976.75 2126.87"/><path fill="#73AFD1" d="M2837.51,2400.95c25.39,2.4,51.85,3.71,77.9,4.42c26.15,0.63,52.38,0.69,78.54-0.54
							c26.14-1.29,52.38-3.06,78.28-7.15c25.89-4.04,51.72-9.47,76.57-18.75c-23.39,12.51-48.68,21.52-74.29,29.11
							c-25.66,7.66-51.89,13-78.22,17.87c-26.36,4.81-52.91,8.32-79.56,11.25c-26.76,2.83-53.17,5.1-80.63,6.18L2837.51,2400.95z"/><path fill="#73AFD1" d="M2667.61,2692.02c9.57,6.47,20.22,13.04,30.62,19.24c10.5,6.24,21.15,12.27,31.94,18.07
							c21.57,11.59,43.66,22.31,66.32,31.69c22.66,9.34,45.89,17.48,69.82,23.07c23.88,5.68,48.6,8.72,73.48,6.33
							c-24.29,5.9-49.99,6.46-75.15,4.14c-25.26-2.23-50.24-7.16-74.82-13.42c-24.59-6.3-48.8-14.05-72.65-22.79
							c-11.93-4.37-23.77-9.01-35.53-13.91c-11.84-4.96-23.27-9.9-35.33-15.76L2667.61,2692.02z"/><path fill="#73AFD1" d="M2824.34,2408.18c0.08-3.17-0.03-7.67-0.24-11.65c-0.2-4.1-0.49-8.25-0.85-12.41
							c-0.76-8.32-1.71-16.68-3-25.03c-2.48-16.71-6.07-33.34-10.49-49.77c-8.82-32.9-21.48-64.93-37.7-95.26
							c-16.2-30.36-36.29-58.77-59.45-84.76c-23.42-25.73-49.96-48.92-78.92-69c30.81,17.07,59.89,37.68,86.42,61.52
							c26.27,24.09,50,51.33,70.09,81.29c20.11,29.93,36.88,62.32,49.78,96.36c6.46,17.02,12.1,34.4,16.6,52.18
							c2.31,8.88,4.27,17.87,6.03,26.96c0.86,4.55,1.65,9.13,2.35,13.78c0.71,4.77,1.3,9.05,1.76,14.66L2824.34,2408.18z"/><path fill="#73AFD1" d="M2661.71,2688.66c-3.9-1.32-6.51-2.43-9.58-3.72c-2.96-1.26-5.85-2.55-8.7-3.91
							c-5.7-2.69-11.26-5.55-16.69-8.59c-10.88-6.05-21.33-12.71-31.3-19.98c-19.94-14.54-37.97-31.54-53.2-50.62
							c-7.55-9.6-14.37-19.69-20.46-30.14c-5.89-10.58-11.1-21.45-15.34-32.64c-8.42-22.42-13.08-45.83-14.65-69.13
							c5.07,22.82,13.11,44.75,24.26,64.66c5.61,9.95,12.03,19.33,18.92,28.24c7.09,8.78,14.72,17.02,22.87,24.66
							c16.43,15.16,34.85,27.83,54.44,37.99c9.79,5.08,19.89,9.52,30.13,13.33c5.11,1.92,10.28,3.64,15.44,5.17
							c2.57,0.78,5.16,1.49,7.7,2.14c2.43,0.62,5.36,1.32,7.07,1.57L2661.71,2688.66z"/><path fill="#8CBFA3" d="M1030.23,2390.49c-0.47-0.81-2.3-3.98-7.09-12.51C1026.67,2385.15,1029.55,2389.52,1030.23,2390.49z"/><path fill="#3DC7C7" d="M956.43,2256.06c38.8,71.63,57.75,105.95,66.65,121.81c-15.18-30.58-42.65-111.76,34.19-199.22
							c60.08-68.38,103.59-110.08,122.68-161.05c11.91-31.81,14.29-67.25,5.24-115.08c-23.56-124.4,37.02-185.01,37.02-275.88
							c0-11.96,1.23-24.45,2.91-37.12c11.07-83.56,41.86-174.93-129.12-174.93c0,0-38.04-9.82-86.89,92.1
							c-8.35,17.43-17.02,38.14-25.87,62.73c-1.05,2.88-2.04,5.73-2.98,8.51c-0.03,0.03-0.03,0.03-0.03,0.03
							c-55.39,160.48,6.02,181.81-13.82,287.68C946.22,1973.32,892.58,2138.25,956.43,2256.06z"/><path fill="#39B8B8" d="M980.26,1577.91c1.62-1.41,54.35-47.15,80.87-44.92c26.91,2.23,76.29,171.37,99.85,216.53
							c23.56,45.16-6.73,68.43,4.5,159.33c6.47,52.39,11.44,87.99,14.48,108.75c11.91-31.81,14.29-67.25,5.24-115.08
							c-23.56-124.4,37.02-185.01,37.02-275.88c0-11.96,1.23-24.45,2.91-37.12c-28.43-88.75-86.1-177.97-159.51-128.33
							c-25.16,17.02-43.38,32.2-56.49,45.5c-8.35,17.43-17.02,38.14-25.87,62.73C982.19,1572.28,981.2,1575.14,980.26,1577.91z"/><path fill="#5F8FAB" d="M1130.53,1466.23c-3.6,6.09-6.67,11.87-9.74,17.89c-3.03,5.97-5.91,12.01-8.7,18.08
							c-5.51,12.17-10.57,24.52-15.13,37.06c-9.12,25.07-16.27,50.86-21.03,77.14c-2.36,13.14-4.02,26.41-5.03,39.73
							c-1.05,13.32-1.28,26.71-0.66,40.06c0.58,13.35,1.91,26.69,4.35,39.84l1.66,9.68c0.55,3.15,1.1,6.31,1.4,9.51
							c0.84,6.37,1.25,12.81,1.56,19.25c0.57,12.91,0.08,25.9-0.96,38.86c-1.07,12.96-2.68,25.91-4.84,38.79
							c-4.29,25.77-10.29,51.29-17.25,76.56c-6.96,25.27-14.91,50.3-23.27,75.19c-8.3,24.91-17.38,49.58-25.25,74.65
							c8.57-24.83,18.34-49.22,27.35-73.91c9.07-24.67,17.74-49.51,25.44-74.68c7.71-25.17,14.47-50.68,19.55-76.62
							c2.55-12.96,4.56-26.06,6.03-39.24c1.44-13.18,2.32-26.47,2.11-39.83c-0.13-6.67-0.37-13.36-1.06-20.04
							c-0.23-3.35-0.7-6.68-1.19-10.01l-1.39-9.78c-2-12.74-2.92-25.65-3.11-38.54c-0.23-12.9,0.35-25.81,1.73-38.65
							c1.34-12.84,3.31-25.62,5.95-38.27c5.33-25.29,12.96-50.1,22.48-74.14c4.76-12.02,10-23.85,15.66-35.46
							c2.86-5.79,5.8-11.53,8.87-17.18c3.05-5.6,6.33-11.33,9.56-16.46l0.11-0.18c2.62-4.16,1.38-9.65-2.78-12.28
							c-4.16-2.62-9.65-1.38-12.28,2.78C1130.62,1466.08,1130.56,1466.17,1130.53,1466.23z"/><path fill="#83C7C7" d="M1520.1,2823.21l-424.1-1408.63h63.5c99.52,0,186.54,67.02,211.93,163.24
							c92.24,349.56,300.14,1142.7,300.14,1189.84C1671.56,2828.25,1520.1,2823.21,1520.1,2823.21z"/><path fill="#83C7C7" d="M1130.24,1528.34c0,0-101.57-120.49-150.01,49.61c0,0,41.71-154.95,115.76-163.37
							C1095.99,1414.58,1127.47,1477.16,1130.24,1528.34z"/><path fill="#5F8FAB" d="M1597.58,2826.74c0.73,0,1.47-0.09,2.21-0.28c4.76-1.22,7.63-6.07,6.41-10.83
							c-2.91-11.37-291.17-1137.42-297.76-1186.82c-1.81-13.58-10.26-61.74-42.94-111.37c-33.21-50.43-79.19-84.69-136.69-101.83
							c-4.72-1.39-9.67,1.28-11.07,5.99c-1.4,4.71,1.28,9.67,5.99,11.07c115.58,34.44,159.4,140.98,167.06,198.5
							c6.72,50.43,286.26,1142.42,298.16,1188.88C1590,2824.07,1593.61,2826.74,1597.58,2826.74z"/><path fill="#8CBFA3" d="M1628.9,2520.96c-0.36-0.62-1.77-3.06-5.45-9.61C1626.16,2516.86,1628.37,2520.21,1628.9,2520.96z"/><path fill="#3DC7C7" d="M1572.2,2417.68c29.81,55.03,44.37,81.4,51.21,93.59c-11.67-23.49-32.77-85.86,26.27-153.07
							c46.16-52.54,79.59-84.58,94.25-123.74c9.15-24.44,10.98-51.67,4.02-88.42c-18.1-95.58,28.44-142.14,28.44-211.96
							c0-9.19,0.95-18.79,2.23-28.52c8.51-64.2,32.16-134.4-99.2-134.4c0,0-29.23-7.54-66.76,70.76
							c-6.42,13.39-13.07,29.3-19.87,48.19c-0.8,2.21-1.57,4.4-2.29,6.54c-0.02,0.02-0.02,0.02-0.02,0.02
							c-42.56,123.3,4.63,139.69-10.62,221.03C1564.35,2200.45,1523.14,2327.16,1572.2,2417.68z"/><path fill="#39B8B8" d="M1590.5,1896.65c1.25-1.09,41.76-36.23,62.13-34.52c20.68,1.71,58.61,131.66,76.71,166.36
							c18.1,34.7-5.17,52.58,3.46,122.41c4.97,40.25,8.79,67.6,11.12,83.55c9.15-24.44,10.98-51.67,4.02-88.42
							c-18.1-95.58,28.44-142.14,28.44-211.96c0-9.19,0.95-18.79,2.23-28.52c-21.84-68.18-66.15-136.73-122.55-98.6
							c-19.33,13.07-33.33,24.74-43.41,34.96c-6.42,13.39-13.07,29.3-19.87,48.19C1591.99,1892.33,1591.22,1894.52,1590.5,1896.65z"/><path fill="#5F8FAB" d="M1705.95,1810.85c-2.77,4.68-5.12,9.12-7.48,13.74c-2.33,4.59-4.54,9.23-6.68,13.89
							c-4.24,9.35-8.12,18.84-11.62,28.47c-7.01,19.26-12.5,39.08-16.16,59.26c-1.81,10.1-3.09,20.29-3.87,30.52
							c-0.81,10.23-0.98,20.52-0.51,30.78c0.44,10.26,1.47,20.5,3.35,30.61l1.27,7.44c0.42,2.42,0.84,4.85,1.08,7.31
							c0.64,4.89,0.96,9.84,1.2,14.79c0.44,9.92,0.06,19.9-0.74,29.86c-0.82,9.96-2.06,19.91-3.72,29.8
							c-3.3,19.8-7.91,39.41-13.26,58.82c-5.35,19.42-11.45,38.64-17.88,57.77c-6.38,19.14-13.35,38.09-19.4,57.36
							c6.58-19.08,14.09-37.82,21.01-56.79c6.97-18.95,13.63-38.04,19.55-57.38c5.92-19.34,11.12-38.94,15.02-58.86
							c1.96-9.96,3.5-20.02,4.63-30.14c1.1-10.13,1.78-20.34,1.62-30.6c-0.1-5.13-0.28-10.27-0.81-15.4
							c-0.18-2.57-0.54-5.13-0.91-7.69l-1.07-7.52c-1.54-9.79-2.24-19.7-2.39-29.61c-0.18-9.91,0.27-19.83,1.33-29.7
							c1.03-9.86,2.54-19.68,4.57-29.4c4.09-19.43,9.96-38.49,17.27-56.96c3.66-9.24,7.68-18.33,12.03-27.24
							c2.2-4.45,4.46-8.86,6.82-13.2c2.34-4.3,4.86-8.71,7.34-12.64l0.09-0.14c2.01-3.2,1.06-7.42-2.14-9.43
							c-3.19-2.01-7.42-1.06-9.43,2.14C1706.03,1810.73,1705.98,1810.8,1705.95,1810.85z"/><path fill="#83C7C7" d="M2005.26,2853.42l-325.84-1082.26h48.79c76.46,0,143.32,51.49,162.83,125.42
							c70.87,268.57,230.6,877.94,230.6,914.17C2121.64,2857.3,2005.26,2853.42,2005.26,2853.42z"/><path fill="#83C7C7" d="M1705.74,1858.56c0,0-78.03-92.57-115.26,38.12c0,0,32.05-119.05,88.94-125.52
							C1679.42,1771.16,1703.6,1819.24,1705.74,1858.56z"/><path fill="#5F8FAB" d="M2064.8,2856.14c0.56,0,1.13-0.07,1.7-0.22c3.66-0.94,5.86-4.66,4.93-8.32
							c-2.24-8.73-223.71-873.89-228.77-911.84c-1.39-10.43-7.88-47.44-32.99-85.57c-25.51-38.75-60.85-65.07-105.02-78.23
							c-3.63-1.07-7.43,0.98-8.51,4.6c-1.08,3.62,0.98,7.43,4.6,8.51c88.8,26.46,122.47,108.31,128.36,152.51
							c5.17,38.75,219.94,877.73,229.08,913.42C2058.97,2854.08,2061.75,2856.14,2064.8,2856.14z"/><g><path fill="#A9E1FF" d="M3703.25,2878.15c6.77,0.4,153.91,171.61,264.59,55.82c110.68-115.79,85.7-147.72,56.08-139.05
							s-230.69,57.07-182.39,18.42c48.3-38.66,201.12-23.29,230.75-73.06c29.64-49.77,91.83-235.33,43.74-244.65
							c-48.1-9.32-129.6,53.34-146.28,64.79c-16.68,11.44-33.26-75.3,90.95-101.64c124.21-26.34,87.74-174.26,0.09-246.59
							c-87.65-72.34-215.78-24.9-241.94,33.51s46.5,121.42,1.94,145.85s-29.4-80.4-64.18-100.7s-174.07,94.89-158.36,158.93
							c15.72,64.03,101.95,93.19,105.03,197.79c3.07,104.6-40.53-20.64-75.02-71.8c-34.49-51.16-75.31-115.14-85.7-41.78
							S3535.21,2868.32,3703.25,2878.15z"/><path fill="#73AFD1" d="M3178.72,3107.56l0.9-28.13c236.89,7.62,432.44-96.24,581.22-308.71
							c111.75-159.59,153.61-323.9,154.02-325.54l27.31,6.81c-1.71,6.88-43.27,170.34-157.77,334.16
							c-67.5,96.58-146.37,172.79-234.42,226.52C3439.64,3080.01,3314.73,3111.94,3178.72,3107.56z"/><polygon fill="#73AFD1" points="3913.5 2448.9 3978.17 2307 3940.06 2458.21"/><path fill="#73AFD1" d="M3847.63,2640.14c16.85,1.59,34.42,2.46,51.71,2.93c17.36,0.42,34.77,0.46,52.13-0.36
							c17.35-0.86,34.77-2.03,51.96-4.75c17.19-2.68,34.33-6.29,50.82-12.45c-15.53,8.31-32.31,14.28-49.31,19.32
							c-17.03,5.08-34.44,8.63-51.92,11.86c-17.49,3.19-35.12,5.52-52.8,7.46c-17.76,1.88-35.29,3.38-53.52,4.1L3847.63,2640.14z"/><path fill="#73AFD1" d="M3734.86,2833.34c6.35,4.29,13.42,8.66,20.33,12.77c6.97,4.14,14.04,8.14,21.2,11.99
							c14.32,7.69,28.98,14.81,44.02,21.03c15.04,6.2,30.46,11.6,46.34,15.32c15.85,3.77,32.26,5.79,48.77,4.2
							c-16.12,3.92-33.18,4.29-49.88,2.75c-16.76-1.48-33.35-4.75-49.66-8.91c-16.32-4.18-32.39-9.32-48.22-15.13
							c-7.92-2.9-15.78-5.98-23.59-9.23c-7.86-3.29-15.44-6.57-23.45-10.46L3734.86,2833.34z"/><path fill="#73AFD1" d="M3838.89,2644.94c0.05-2.11-0.02-5.09-0.16-7.73c-0.13-2.72-0.32-5.48-0.56-8.24
							c-0.5-5.52-1.13-11.07-1.99-16.61c-1.64-11.09-4.03-22.13-6.96-33.04c-5.85-21.84-14.26-43.1-25.02-63.23
							c-10.75-20.15-24.09-39.01-39.46-56.26c-15.55-17.08-33.16-32.47-52.38-45.8c20.45,11.33,39.75,25.01,57.36,40.83
							c17.44,15.99,33.19,34.07,46.52,53.95c13.35,19.87,24.48,41.36,33.04,63.96c4.29,11.29,8.03,22.83,11.02,34.64
							c1.53,5.89,2.83,11.86,4,17.9c0.57,3.02,1.1,6.06,1.56,9.15c0.47,3.16,0.86,6.01,1.17,9.73L3838.89,2644.94z"/><path fill="#73AFD1" d="M3730.95,2831.11c-2.59-0.88-4.32-1.61-6.36-2.47c-1.97-0.83-3.88-1.69-5.77-2.6
							c-3.79-1.79-7.47-3.68-11.08-5.7c-7.22-4.02-14.16-8.44-20.78-13.26c-13.23-9.65-25.21-20.93-35.31-33.6
							c-5.01-6.37-9.54-13.07-13.58-20c-3.91-7.02-7.37-14.24-10.18-21.67c-5.59-14.88-8.68-30.42-9.72-45.88
							c3.36,15.15,8.7,29.7,16.1,42.92c3.72,6.6,7.98,12.83,12.56,18.74c4.71,5.83,9.77,11.3,15.18,16.37
							c10.9,10.06,23.13,18.47,36.13,25.22c6.5,3.37,13.2,6.32,20,8.84c3.39,1.27,6.82,2.42,10.25,3.43
							c1.71,0.52,3.42,0.99,5.11,1.42c1.61,0.41,3.56,0.87,4.69,1.04L3730.95,2831.11z"/></g><g><ellipse cx="2720.8" cy="3029.66" fill="#A7C4CF" rx="1853.92" ry="100.31"/></g><g><ellipse cx="1752.7" cy="2838.3" fill="#915200" rx="567.96" ry="65.68"/><path fill="#F28800" d="M2320.66,2834.45v158.41c-8.03,1.41-16.07,2.78-24.12,4.11c-360.06,60.11-727.6,60.11-1087.67,0
							c-8.05-1.33-16.09-2.7-24.12-4.11v-158.41C1560.55,2900.02,1944.86,2900.02,2320.66,2834.45z"/><path fill="#FCF2CC" d="M2266.53,2813.72c-339.98,59.32-687.67,59.32-1027.65,0c0-280.74,230.05-508.33,513.82-508.33
							S2266.53,2532.97,2266.53,2813.72z"/><path fill="#F5C098" d="M1474.03,2476.56c0,0,30.32-77.02,93.64-32.66C1567.67,2443.91,1522.36,2448.65,1474.03,2476.56z"/><path fill="#224557" d="M1520.09,2456.29c-1.55,0.52-3.07,1-4.52,1.46l-0.15-0.48l-4.96-16.12l-1.74-5.65l-64.61-209.52
								l-15.09-48.91l29.66-7.72l10.57,49.37l45.8,214l1.37,6.41l3.52,16.51L1520.09,2456.29z"/><circle cx="1443.86" cy="2177.84" r="48.14" fill="#E8C67B" transform="rotate(-76.714 1444.025 2177.955)"/><path fill="#F0D497" d="M1492.02,2176.67c-6.84,9.71-18.15,16.07-30.94,16.07c-20.93,0-37.89-16.96-37.89-37.86
								c0-8.92,3.1-17.14,8.26-23.62c3.97-1.09,8.14-1.65,12.46-1.65C1470.16,2129.6,1491.44,2150.58,1492.02,2176.67z"/><path fill="#F5C098" d="M1557.16,2444.87c0,0-2.92,0.87-7.4,2.24c-0.04,0-0.07,0.02-0.11,0.04
							c-7.57,2.3-19.55,5.96-29.55,9.15c-1.55,0.52-3.07,1-4.52,1.46c-4.76,1.55-8.72,2.89-11.03,3.78h-0.02
							c-0.33,0.13-0.63,0.26-0.89,0.37c-0.13,0.06-0.26,0.09-0.37,0.15c-7.16,3.15,0.3-15.72,0.3-15.72s1.76-2.81,6.9-5.18
							c1.63-0.76,3.59-1.46,5.96-2.02c3.28-0.8,7.31-1.28,12.24-1.2C1548.36,2438.2,1557.16,2444.87,1557.16,2444.87z"/><path fill="#F5C098" d="M2001.26,2572.85c0,0-30.32-77.02-93.64-32.66C1907.62,2540.2,1952.92,2544.94,2001.26,2572.85z"/><path fill="#224557" d="M1955.19,2552.58c1.55,0.52,3.07,1,4.52,1.46l0.15-0.48l4.96-16.12l1.74-5.65l64.61-209.52
								l15.09-48.91l-29.66-7.72l-10.57,49.37l-45.8,214l-1.37,6.41l-3.52,16.51L1955.19,2552.58z"/><circle cx="2031.43" cy="2274.13" r="48.14" fill="#E8C67B"/><path fill="#F0D497" d="M2030.93,2225.98c-26.34,0.25-47.65,21.69-47.65,48.13c0,2.29,0.15,4.55,0.48,6.74
							c26.37-0.25,47.65-21.71,47.65-48.13C2031.41,2230.43,2031.26,2228.17,2030.93,2225.98z"/><path fill="#F5C098" d="M1918.13,2541.16c0,0,2.93,0.87,7.4,2.24c0.04,0,0.07,0.02,0.11,0.04c7.57,2.3,19.55,5.96,29.55,9.15
							c1.55,0.52,3.07,1,4.52,1.46c4.76,1.55,8.72,2.89,11.03,3.78h0.02c0.33,0.13,0.63,0.26,0.89,0.37
							c0.13,0.06,0.26,0.09,0.37,0.15c7.16,3.15-0.3-15.72-0.3-15.72s-1.76-2.81-6.91-5.18c-1.63-0.76-3.59-1.46-5.96-2.02
							c-3.28-0.8-7.31-1.28-12.24-1.2C1926.92,2534.49,1918.13,2541.16,1918.13,2541.16z"/><path fill="#F5C098" d="M1568.33,2618.08c-8.42,4.53-15.98,8.89-23.19,13.61c-7.18,4.69-13.97,9.56-20.25,15.06
						c-6.23,5.5-12.45,11.12-18.07,17.61c-3.11,3.03-5.62,6.55-8.71,9.85c-2.98,3.38-5.61,7.04-9.12,10.51
						c0.1-2.39,0.4-4.74,0.76-7.11c0.39-2.35,0.66-4.79,1.46-7.02c1.48-4.5,2.93-9.16,5.35-13.32c4.29-8.67,10.74-16.23,18.07-22.61
						c7.37-6.4,16.08-11.19,25.24-14.22C1549.01,2617.48,1558.83,2616.11,1568.33,2618.08z"/><path fill="#F5C098" d="M1502.55,2611.65c0.12,4.39,1.48,8.13,2.82,11.72c0.74,1.8,1.46,3.52,2.35,5.23
						c0.76,1.71,1.75,3.37,2.64,5.03c3.69,6.61,7.96,12.92,12.27,19.36c1.08,1.61,2.27,3.18,3.39,4.78
						c1.11,1.62,2.13,3.28,3.34,4.86c2.37,3.18,4.45,6.59,6.79,9.89c2.33,3.3,4.42,6.85,6.64,10.38c2.19,3.55,4.32,7.22,6.1,11.34
						c-4.12-1.6-7.9-3.67-11.62-5.84c-3.7-2.19-7.01-4.87-10.36-7.51c-0.82-0.68-1.66-1.34-2.46-2.05l-2.3-2.22
						c-1.56-1.47-3.01-3.03-4.51-4.56c-2.92-3.14-5.51-6.62-8.07-10.1c-4.83-7.22-8.85-15.24-10.87-24.08
						c-0.46-2.23-0.93-4.42-1.03-6.74c-0.06-1.15-0.21-2.26-0.17-3.42l0.18-3.45c0.28-2.3,0.64-4.57,1.47-6.75
						C1499.91,2615.37,1500.92,2613.24,1502.55,2611.65z"/><path fill="#F5C098" d="M1783.65,2351.13c0,6.57-13.85,11.9-30.94,11.9c-17.09,0-30.94-5.33-30.94-11.9
						c0-6.57,13.85-11.9,30.94-11.9C1769.79,2339.23,1783.65,2344.56,1783.65,2351.13z"/><ellipse cx="2154.15" cy="2592.96" fill="#F5C098" rx="22.87" ry="59.45" transform="rotate(-33.379 2153.942 2592.76)"/><path fill="#F5C098" d="M1302.11,2745.73c-11.22-5.8-8.08-34.15,7.01-63.31c15.09-29.16,36.41-48.1,47.63-42.3
						c11.22,5.8,8.08,34.15-7.01,63.31C1334.65,2732.6,1313.32,2751.54,1302.11,2745.73z"/><ellipse cx="1800.7" cy="2462.4" fill="#F5C098" rx="22.98" ry="22.87" transform="rotate(-62.6 1800.61 2462.409)"/><path fill="#F5C098" d="M1973.19,2738.61c-5.56,7.36-25.57,1.61-44.7-12.83c-19.13-14.45-30.13-32.12-24.58-39.48
						c5.56-7.36,25.57-1.61,44.7,12.83C1967.75,2713.57,1978.75,2731.25,1973.19,2738.61z"/></g><g><path fill="#19190B" d="M2390.69,1185.74c0,0,11.32,0.83,14.8-25.68s27.86-38.94,30.48-50.54
					c2.61-11.6,6.97-149.95-151.51-130.9s-67.05,151.33-54.86,189.44C2241.8,1206.17,2313.78,1170.83,2390.69,1185.74z"/><path fill="#19190B" d="M2268.26,1066.18c0,0,1.23-148.27-112.71-91.61c-113.94,56.66-29.4,168.76-53.29,210.35
					c-23.89,41.59-97.4,75.94-62.48,94.02c34.92,18.08,60.64,36.16,141.5-25.31C2262.14,1192.15,2268.26,1066.18,2268.26,1066.18z"/><path fill="#E6E664" d="M2192.33,1060.33c-2.76,0-5.2-1.96-5.72-4.76c-0.11-0.59-10.05-59.02,59.53-74.86
					c3.13-0.72,6.26,1.25,6.97,4.39c0.71,3.14-1.25,6.26-4.39,6.97c-58.47,13.31-51,59.44-50.65,61.4c0.56,3.16-1.54,6.19-4.7,6.76
					C2193.03,1060.3,2192.68,1060.33,2192.33,1060.33z"/><path fill="#FFD087" d="M2449.8,1279.59l171.63,163.46l137.3-152.01c0,0-13.08-74.37,41.68-80.91
					c54.76-6.54,43.32,14.71,43.32,14.71s16.35-4.63,15.8,14.44c0,0,12.53,2.72,8.17,17.44c0,0,9.47,0.54,0.92,16.89
					c-8.55,16.35-27.62,12.53-27.62,12.53s10.9,2.18-1.63,24.52c-12.53,22.34-29.97,19.07-29.97,19.07s-80.64,173.26-166.72,203.77
					c-86.09,30.51-126.25-50.06-126.25-50.06S2431.27,1337.34,2449.8,1279.59z"/><path fill="#467194" d="M2270.54,1252.7c0,0-92.09,26.88-110.61,64.48s52.12,154.19,86,228.29s-1,161.28-1,161.28
					s177.62,27.24,276.78,0c0,0-54.49-124.23-47.95-149.29c6.54-25.06,64.29-49.04,35.96-127.5
					c-28.33-78.46-59.93-150.38-59.93-150.38S2376.8,1233.45,2270.54,1252.7z"/><path fill="#FFD087" d="M2140.36,2355.12l-82.86,539.4c0,0,61,31.06,70.55,24.52c9.55-6.54,192.62-555.75,192.62-555.75
					L2140.36,2355.12z"/><path fill="#1F1100" d="M2544.6,2919.95h76.01c0,0,19.88,14.9,62.38,36.69c42.5,21.79,87.18,28.33,100.25,58.84
					s-7.63,28.07-7.63,28.07l-247.36-5.19c0,0-13.08-35.96,0-65.38C2541.33,2943.56,2544.6,2919.95,2544.6,2919.95z"/><path fill="#FF4D68" d="M2429.85,1169.5c0,11.62-8.14,21.05-18.15,21.05c-9.99,0-18.15-9.43-18.15-21.05
						c0-5.8,1.98-11.21,5.59-15.2l3.89,3.2c-0.03,0.05-0.08,0.13-0.13,0.18c-2.7,3.03-4.27,7.35-4.27,11.82
						c0,8.8,5.87,15.97,13.07,15.97c7.22,0,13.07-7.17,13.07-15.97c0-8.82-5.85-15.99-13.07-15.99c-1.4,0-2.54-1.14-2.54-2.54
						c0-1.4,1.14-2.54,2.54-2.54C2421.71,1148.42,2429.85,1157.88,2429.85,1169.5z"/><path fill="#FFD087" d="M2421.83,2335.51l132.6,584.44c0,0,50.66,35.23,66.18,0c15.52-35.23-30.24-600.79-30.24-600.79
					S2442.89,2230.9,2421.83,2335.51z"/><path fill="#FFD087" d="M2269.99,1189.69c0,0,19.79,40.05-5.22,71.92s65.62,55.57,65.62,55.57s71.18-2.45,31.95-59.66
					l7.82-31.87C2370.17,1225.65,2305.53,1179.55,2269.99,1189.69z"/><path fill="#91002C" d="M2649.22,2356.75c-25.35-9.61-28.73,7.42-28.66,29.6c0,1.78,0.05,3.64,0.1,5.49v0.41
					c0.05,2.57,0.15,5.16,0.23,7.78c0.51,15.69,0.92,31.76-4.37,41.72c-7.88,14.85-26.95,18.51-52.23,10.45
					c-0.03,0-0.05-0.03-0.08-0.03c-21.99-7.04-48.72-22.96-76.84-48.03c-50.14-44.7-34-22.02-43.78-3.64
					c-1.98,3.79-5.11,7.4-10.15,10.2c-14.39,7.98-30.74,3.08-43.68-4.04h-0.03c-13.53-7.42-23.32-17.21-23.32-17.21
					s-0.71,0.81-2.03,2.24c-0.53,0.56-1.17,1.25-1.91,2.01c-0.53,0.56-1.14,1.2-1.81,1.88c-4.68,4.75-11.93,11.8-21.03,19.4
					c-1.53,1.32-3.13,2.62-4.75,3.92c-6.51,5.21-13.78,10.55-21.61,15.51c-2.03,1.3-4.09,2.54-6.18,3.79
					c-1.17,0.69-2.34,1.37-3.53,2.03c-1.04,0.56-2.09,1.14-3.15,1.68c-0.08,0.03-0.13,0.08-0.2,0.13c-0.05,0.03-0.08,0.05-0.13,0.08
					l-0.03,0.03c-0.03,0.03-0.05,0.03-0.08,0.03c-18.05,9.56-38.09,16.02-57.77,14.21c-3.51-0.31-5.95-1.22-7.6-2.62
					c-18.08-15.13,63.49-86.83-34.91-52.86c-7.42,2.57-14.34,4.78-20.7,6.48c-0.08,0.03-0.13,0.05-0.13,0.05
					c-18.31,4.98-31.86,6.08-38.8,0.61h-0.03c-5.49-4.32-6.81-12.81-2.97-26.77c10.32-37.58-6.03,0-33.82,14.72
					c-6.08,3.2-10.12,4.02-12.59,1.88c-8.85-7.55,2.36-52.4,12.59-157.16c13.09-134.05,93.72-462.58,117.14-487.09
					c23.44-24.54,324.19,11.44,324.19,11.44s85.66,325.28,126.7,450.3c13.65,41.67,22.68,76.38,28.91,105.01v0.03
					c12.48,57.26,13.86,90.29,19.3,106.64C2727.66,2451.57,2696.61,2374.73,2649.22,2356.75z"/><path fill="#FFD087" d="M2407.3,1058.92c0,0,29.42,138.94-27.79,163.46c-57.21,24.52-113.6-36.78-113.6-36.78
					s-44.95-85,0-120.96C2310.86,1028.68,2375.42,1028.68,2407.3,1058.92z"/><path fill="#450014" d="M2235.67,1684.96c0,0,121,32.67,279.53,6.53l29.4,73.56c0,0-169.99,63.75-324.19,0
					C2220.41,1765.05,2232.94,1692.58,2235.67,1684.96z"/><path fill="#FFD087" d="M2245.94,1113.28c0,0-25.39-7.77-30.3,3.67c-4.9,11.44,8.17,47.81,24.11,56.39
					c15.94,8.58,25.74,5.31,25.74,5.31S2261.94,1120.23,2245.94,1113.28z"/><path fill="#FF4D68" d="M2264.77,1184.24c0,11.62-8.14,21.05-18.15,21.05c-9.99,0-18.15-9.43-18.15-21.05
						c0-5.8,1.98-11.21,5.59-15.2l3.89,3.2c-0.03,0.05-0.08,0.13-0.13,0.18c-2.7,3.03-4.27,7.35-4.27,11.82
						c0,8.8,5.87,15.97,13.07,15.97c7.22,0,13.07-7.17,13.07-15.97c0-8.82-5.85-15.99-13.07-15.99c-1.4,0-2.54-1.14-2.54-2.54
						c0-1.4,1.14-2.54,2.54-2.54C2256.64,1163.16,2264.77,1172.62,2264.77,1184.24z"/><path fill="#FFD087" d="M2169.41,1304.24c0,0-144.59,109.38-165.3,204.18s209.22,198.33,209.22,198.33s-5.45,32.69,6.54,63.2
					c11.99,30.51,14.71-8.17,14.71-8.17s7.08,4.9,8.72-12.53c1.63-17.44,8.17-6.54,9.81-5.99s5.45-24.4,5.45-24.4
					s6.16,7.25,9.89-8.97c3.73-16.22,7.55-46.73-13.7-48.91c-21.25-2.18-17.44,2.18-17.44,2.18l-148.74-131.85l97.17-108.34
					C2185.73,1422.97,2215.11,1371.39,2169.41,1304.24z"/><path fill="#780025" d="M2620.66,2392.25c0.05,2.57,0.15,5.16,0.23,7.78C2620.64,2398.07,2620.54,2395.53,2620.66,2392.25z"/><path fill="#780025" d="M2649.22,2356.75c-25.35-9.61-28.73,7.42-28.66,29.6c-3.15-54.79-64.63-283.83-66.13-289.38
					c1.53,3.56,45.23,106.97,62.09,154.36c17.16,48.21,74.37,110.32,74.37,110.32l9.31-41.27c12.48,57.26,13.86,90.29,19.3,106.64
					C2727.66,2451.57,2696.61,2374.73,2649.22,2356.75z"/><path fill="#780025" d="M2564.52,2452.25c0,0-0.08-0.03-0.23-0.05c-0.03,0-0.05-0.03-0.08-0.03
					c-21.99-7.04-48.72-22.96-76.84-48.03c-50.14-44.7-34-22.02-43.78-3.64c-2.72-5.7-4.68-12.46-4.7-20.32
					c-0.1-26.44-17.06-249.56-17.06-249.56l17.06,107.88c0,0,17.44,83.91,29.42,117.7
					C2480.31,2389.99,2522.8,2408.52,2564.52,2452.25z"/><path fill="#780025" d="M2300.01,2442.13c0.03,0,0.05-0.03,0.08-0.03l-0.03,0.03H2300.01z"/><path fill="#780025" d="M2389.77,2406.66h-0.03c-13.53-7.42-23.32-17.21-23.32-17.21s-28.94,32.9-66.34,52.66
					c1.2-0.74,12.56-8.11,33.11-35.44c21.74-28.91,22.88-136.54,20.7-186.65c-2.16-50.14,15.26-158.02,15.26-158.02
					s-4.35,158.02,0,211.42C2373.52,2326.8,2389.77,2406.66,2389.77,2406.66z"/><path fill="#780025" d="M2266.73,2369.01c-6.48,31.96-35.29,62.78-32.44,83.09c0.08,0.56,0.18,1.12,0.33,1.65
					c-18.08-15.13,63.49-86.83-34.91-52.86c-7.42,2.57-14.34,4.78-20.7,6.48c2.8-1.22,47.55-21.33,68.93-76.76
					c22.04-57.21,22.04-179.82,22.04-179.82S2287.99,2264.4,2266.73,2369.01z"/><path fill="#780025" d="M2140.36,2409.39l2.8,0.48C2143.16,2409.87,2141.2,2411.39,2140.36,2409.39z"/><path fill="#780025" d="M2149.84,2371.47c-8.49,23.09-10.22,32.72-9.79,36.56c-5.49-4.32-6.81-12.81-2.97-26.77
					c10.32-37.58-6.03,0-33.82,14.72c-6.08,3.2-10.12,4.02-12.59,1.88c67.07-47.9,74.7-234,74.7-234
					S2167.01,2324.89,2149.84,2371.47z"/><path fill="#1F1100" d="M2045.24,2913.32c0,0-3.54-22.49,54.76-18.8s51.22,53.38,51.22,53.38s39.23-4.93,43.59,45.6
					c4.36,50.53,0,46.83,0,46.83s-163.18,11.62-164.27-9.33C2029.44,3010.06,2045.24,2913.32,2045.24,2913.32z"/><path fill="#F0BB3E" d="M2736.89,1606.01c-0.84,48.64-6.48,89.45-6.48,89.45s-29.11,164.97-28.81,190.62
						c0.33,25.63-5.06,20.57-10.76,32.6c-5.7,12.03-17.42,7.93-17.42,20.26c0,12.36-52.56,99.11-60.16,99.11
						c-5.31,0-40.07,8.37-61.79-12c-9.31-8.72-16.22-22.76-17.37-45c-3.33-64.89,35.29-125.25,38.09-167.05
						c0.43-5.9,0.1-11.44-1.14-16.58c-1.53-6.28-1.91-11.87-1.4-17.16v-0.03c2.9-29.52,33.18-48.23,38.55-109.46
						c0.66-7.55,1.42-14.93,2.29-22.12c1.25-10.53,2.72-20.7,4.5-30.59c8.57-48.01,23.93-89.68,52.73-134.73
						c11.29-17.65,40.1-23.21,40.1-23.21C2732.9,1488.52,2737.85,1552.11,2736.89,1606.01z"/><path fill="#D1A336" d="M2730.4,1695.46c0,0-29.11,164.97-28.81,190.62c0.33,25.63-5.06,20.57-10.76,32.6
						c-5.7,12.03-17.42,7.93-17.42,20.26c0,12.36-52.56,99.11-60.16,99.11c-5.31,0-40.07,8.37-61.79-12
						c5.7-6.18,16.27-9.56,34.53-6.56c59.93,9.81,38.14-27.26,65.37-123.14c27.26-95.88,55.4-344.55,55.4-344.55l30.1,54.21
						C2736.05,1654.65,2730.4,1695.46,2730.4,1695.46z"/><path fill="#F0BB3E" d="M3048.23,1905.56c-2.06,7.98-4.5,14.9-7.32,20.62c-46.45,93.72-373.18,7.6-373.18,7.6
						s2.24-17.62,5.64-46.17v-0.03c12.84-107.02,42.44-367.46,34.45-427.47c0,0,226.7-73.46,317.88-46.43
						C3025.71,1413.69,3080.04,1782.93,3048.23,1905.56z"/><path fill="#D1A336" d="M3048.23,1905.56c-2.06,7.98-4.5,14.9-7.32,20.62c-46.45,93.72-373.18,7.6-373.18,7.6
						s2.24-17.62,5.64-46.17l17.47,31.07c0,0,274.78,47.83,290.19,13.09c15.38-34.73,45.61-299.19,45.61-299.19
						C3057.29,1678.63,3058.63,1814.71,3048.23,1905.56z"/><path fill="#F0BB3E" d="M3090.87,2082.38c0,0-103.99-18.56-125.12-31.25c-13.09-7.86-13.83-19.6-12.51-27.38
						c0.81-4.78,2.39-8.06,2.39-8.06s37.99-28.71,59.09-139.31c21.13-110.6,12.69-268.5,5.92-325.05
						c-6.76-56.57-43.07-126.65,5.06-137.63c0,0,52.35,7.6,75.14,60.79c22.81,53.19,19.43,77.68,19.43,77.68
						s12.66,15.18,27.03,92.86c5.8,31.43,8.01,49.15,8.57,60.31c0,0.03,0,0.03,0,0.05c0.86,16.4-1.83,18.59-1.83,29.14
						c0,17.75-12.87,113.15,2.01,182.38C3170.94,1986.14,3090.87,2082.38,3090.87,2082.38z"/><path fill="#D1A336" d="M3090.87,2082.38c0,0-103.99-18.56-125.12-31.25c-13.09-7.86-13.83-19.6-12.51-27.38
						c6.41,0.89,13.04,3.84,18.79,9.38c26.98,26.14,94.81,22.88,94.81,22.88s40.05-12.28,65.75-55.58
						c25.73-43.33,5.34-125.86,5.34-125.86l-28.6,8.98c0,0,23.7-27.77,31.88-82.31c7.91-52.81,14.26-93.39,14.65-95.86
						c0.86,16.4-1.83,18.59-1.83,29.14c0,17.75-12.87,113.15,2.01,182.38C3170.94,1986.14,3090.87,2082.38,3090.87,2082.38z"/><path fill="#D1A336" d="M3100.84,1474.48c0,0,10.13,37.34,10.13,77.32s-25.34,80.78-25.34,80.78s29.42-24.45,34.33-60.41
						C3124.87,1536.21,3100.84,1474.48,3100.84,1474.48z"/><path fill="#D1A336" d="M2594.45,1839.83c0,0-12.79-7.17-22.25-25.83c0.43-5.9,0.1-11.44-1.14-16.58
						c-1.53-6.28-1.91-11.87-1.4-17.16c0.03,0.03,0.03,0.03,0.03,0.03S2570.35,1810.82,2594.45,1839.83z"/><path fill="#D1A336" d="M2625.52,1698.85c0,0-9.99-20.72-15.03-50.19c1.25-10.53,2.72-20.7,4.5-30.59
						C2615.27,1640.44,2618.2,1667.24,2625.52,1698.85z"/><ellipse cx="2861.82" cy="1454.16" fill="#BA3E00" rx="116.82" ry="27.15" transform="rotate(-6.435 2861.899 1454.801)"/><ellipse cx="2861.22" cy="1448.84" fill="#E64D00" rx="116.82" ry="27.15" transform="rotate(-6.435 2861.3 1449.482)"/><ellipse cx="2861.22" cy="1448.84" fill="#733700" rx="98.62" ry="22.92" transform="rotate(-6.435 2861.3 1449.482)"/><polygon points="2768.11 1465.99 2763.81 1460.48 2854.53 1389.7 2957.49 1439.9 2954.43 1446.18 2855.39 1397.9"/><path d="M2851.67,1393.14l-5.06-80.37l2.26-0.97c10.04-4.31,16.33-10.11,18.72-17.22c3.28-9.79-1.96-19.14-2.01-19.23l6.05-3.5
					c0.28,0.49,6.86,12.05,2.62,24.86c-2.83,8.54-9.67,15.42-20.36,20.49l4.75,75.5L2851.67,1393.14z"/><path d="M2813.07,1281.14l-6.27-3.1c0.1-0.2,2.47-4.95,6.59-10.53l5.63,4.15C2815.29,1276.71,2813.1,1281.1,2813.07,1281.14z"/><path fill="#19190B" d="M2300.91,1044.91c0,0-35.82,46.7-29.55,78.3c6.27,31.6,4.08,49.04,0,36.51
					c-4.08-12.53-13.5-40.04-25.41-46.44C2234.03,1106.87,2248.46,1045.07,2300.91,1044.91z"/><path fill="#19190B" d="M2358.3,1037.7c0,0,29.38,20.4,37.14,41.24c7.76,20.84,3.27-15.94,3.27-15.94s16.36,54.77,16.15,67.83
					s7.77-61.11-3.16-76.32C2400.76,1039.31,2374.29,1032.43,2358.3,1037.7z"/></g><g><path fill="#453927" d="M3378.63,1070.77c0.28-2.88-11.03-20.02,0-30.24s-13.08-0.72-23.7-27.53s-1.63-17.82,29.01-22.32
					c30.65-4.5,4.17-19.21,68.49-19.21s75.76-5.31,82.3,17.57c6.54,22.88,11.03,59.66,0,67.83S3374.54,1112.86,3378.63,1070.77z"/><path fill="#4B7248" d="M3491.19,3023c-1.12,3.51-2.62,6-4.63,7.14c-16.53,9.53-118.03,26.72-130.64,21
						c-9.23-4.2-13.02-17.06-11.77-30.38c0,0-0.03,0,0-0.03c0.46-4.88,1.6-9.84,3.38-14.44c6.69-17.19,57.26-27.69,62.04-46.17
						c4.78-18.51,27.69-29.24,27.69-29.24c23.72-20.29,49.33-11.47,49.33-11.47S3499.35,2997.6,3491.19,3023z"/><path fill="#3E5E3C" d="M3444.18,2935.05c0,0,11.28,1.36,14.55,4.02c3.27,2.66-9.54,19.3-9.78,22.42
						c-0.23,3.12-6.16,44.19-6.16,44.19s-62.52,28.35-83.77,23.98c0,0-3.27,8.91,11.24,10.55c14.51,1.63,83.16-4.7,83.16-4.7
						l21.86-24.31l-2.25-79.68C3473.03,2931.51,3465.76,2929.35,3444.18,2935.05z"/><path fill="#FFDAA1" d="M3480.38,2878.17v51.08c0,0-0.28,0.15-0.86,0.46c-2.77,1.32-12.08,5.24-26.55,5.57
						c-4.09,0.1-8.57-0.1-13.45-0.71l-10.98-51.49L3480.38,2878.17z"/><path fill="#EBCB9B" d="M3480.38,2882.95v43.35c-0.33,1.25-0.61,2.39-0.86,3.41c-2.77,1.32-12.08,5.24-26.55,5.57
						c1.4-2.59,3.89-6.51,6.43-11.62c4.91-9.79-2.19-35.95-2.19-35.95C3460.55,2879.24,3471.99,2880.59,3480.38,2882.95z"/><path fill="#16385C" d="M3432.16,1232.18c0,0,52.03-30.26,123.27-27.59l-37.05,63.96l-73.96-3.68L3432.16,1232.18z"/><path fill="#3D2704" d="M3310.12,1893.88c0,0-87.18,469.42-80.64,489.03c6.54,19.61,170.65,506.9,170.65,506.9
						c46.41,12.04,79.45-0.99,100.69-36.14l-91.53-490.37l83.91-469.42H3310.12z"/><path fill="#E8F4FF" d="M3453.01,1257.93c0,0-11.18,100.66-12.06,111.29s-54.1,524.66-54.1,524.66s34.69,14.41,70.65,0
						c35.96-14.41,75.52-623.43,75.52-623.43S3485.3,1253.23,3453.01,1257.93z"/><path fill="#FFDAA1" d="M3551.47,1233.01c0,0-47.93,59.22-70.28,56.4c-10.12-1.3-24.51-32.7-24.51-32.7l-2.16-18.99
						l-2.08-18.18l45.59-28.22l35.52-21.99L3551.47,1233.01z"/><polygon fill="#E3B46A" points="3514.91 1188.05 3454.52 1237.71 3452.44 1219.53 3498.03 1191.31"/><path fill="#FFDAA1" d="M3381.27,1083.96c-1.04-7.26,0.45-14.64,4.26-20.91c13.47-22.14,51.47-69.07,120.18-41.72
						c88.27,35.14,36.78,114.42,29.42,143.84c-7.36,29.42-101.34,61.3-101.34,61.3s-16.35-6.54-30.24-40.86
						C3392.77,1158.96,3384.45,1106.24,3381.27,1083.96z"/><path fill="#295C8F" d="M3447.07,1344.96c-8.49,8.42-11.65,322.03-36.16,371.05c-24.51,49.05-26.16,250.63-26.16,250.63
						s-111.14,4.37-111.14-13.6c0-4.12,1.45-19.6,3.69-41.72c7.55-74.8,24.1-225.2,24.1-265.58c0-52.3,14.7-318.75,34.33-337.18
						c19.6-18.43,85.94-56.22,85.94-56.22c24.87,19.4,29.65,54.44,30.56,68.27c0.23,3.66,0.2,5.85,0.2,5.85
						S3455.59,1336.54,3447.07,1344.96z"/><path fill="#FFDAA1" d="M3269.52,1738.49l33.83,46.22c3.24,7.53,48.03-37.2,48.49-55.37l-29.2-28.58L3269.52,1738.49z"/><path fill="#21303D" d="M3453.01,1344.97c-8.49,8.42-17.58,322.02-42.09,371.04c-24.51,49.05-26.16,250.63-26.16,250.63
						s-111.14,4.37-111.14-13.6c0-4.12,1.45-19.6,3.69-41.72c27.36,33.46,86.02,17.19,86.02,17.19
						c-5.11-77.63,32.06-211.67,44.32-295.91c12.26-84.24,33.31-316.23,33.31-316.23l11.29,4.25c0.23,3.66,0.2,5.85,0.2,5.85
						S3461.53,1336.55,3453.01,1344.97z"/><path fill="#6792BD" d="M3316.13,1670.62c5.34,9.1,8.75,19.55,6.51,30.13c-8.16,38.55-60.21,45.46-60.21,45.46
						s-82.84-42.72-72.54-119.83c29.24-218.67,142.59-312.46,142.59-312.46c-4.75,21.56-11.03,74.7-16.35,124.87c0,0,0,0.03,0,0.05
						c-5.95,56.22-10.68,108.67-10.68,108.67l-15.46,94.23c0,0,16.3,12.1,26.09,28.78L3316.13,1670.62z"/><path fill="#1F5387" d="M3472.47,1270.44l-4.12,16.15l-12.76,49.96c0,0-24.21-26.52-31.73-61.35c-0.03-0.1-0.05-0.2-0.05-0.31
						c-0.61-2.75-1.09-5.52-1.45-8.37c-3.81-30.26,9.81-34.33,9.81-34.33L3472.47,1270.44z"/><path fill="#4B7248" d="M3611,3038.99c-0.33,6.56-1.88,11.62-5.57,12.46c-83.91,18.79-154.47-4.09-154.47-4.09
						s-0.03-1.09-0.08-3.1v-0.2c-0.03-2.72-0.05-7.07,0.05-12.64c0.31-16.25,1.7-42.84,6.97-69.87
						c6.53-33.51,18.94-36.79,18.94-36.79c20.57-5.72,75.87,13.09,75.87,13.09l54.34,65.78
						C3607.06,3003.63,3611.78,3024.78,3611,3038.99z"/><path fill="#6792BD" d="M3331.36,1454.48h71.38c0,0-2.93,93.71-39.43,89.9C3326.8,1540.57,3331.36,1454.48,3331.36,1454.48z"/><path fill="#457AAD" d="M3402.83,1454.48c0,0-2.92,93.72-39.44,89.91c-12.15-1.27-19.76-11.7-24.49-25.02
						c4.25,5.26,9.59,8.77,16.32,9.48c27.05,2.82,35.67-47.93,38.32-74.37H3402.83z"/><path fill="#FFDAA1" d="M3556.38,2880.36l-10.42,59.12c-6.89,3.43-13.68,5.57-20.34,6.48c0,0-0.03,0-0.08,0.03
						c-16.83,2.31-33-2.95-48.69-13.86l2.19-45.89l0.23-4.78h0.86l2.01-0.05L3556.38,2880.36z"/><path fill="#EBC386" d="M3525.61,2945.96c0,0-0.03,0-0.08,0.03c-16.83,2.31-33-2.95-48.69-13.86l2.19-45.89l1.09-4.78
						l0.25-1.09l1.75,1.04l11.77,7.12c-0.71,3-5.9,45.23,3.92,49.33C3507.61,2941.92,3525.61,2945.96,3525.61,2945.96z"/><path fill="#E2F2E0" d="M3527.04,2960.8c-14.44,0-25.85-3.37-26.56-3.59l0.67-2.23c0.26,0.08,26.08,7.7,48.87,0.01l0.74,2.21
						C3542.76,2959.9,3534.5,2960.8,3527.04,2960.8z"/><path fill="#3D2704" d="M3425.55,1901.21l50.75,516.02l-11.44,472.39c30.37,30.13,66.4,29.05,106.11,7.77L3678.84,2425
						l18.12-531.12L3425.55,1901.21z"/><path fill="#E2F2E0" d="M3531.73,2975.24c-14.75,0-28.01-3.56-28.9-3.81l0.62-2.25c0.34,0.09,34.83,9.35,53.99-1.91l1.18,2.01
						C3550.88,2973.83,3541.01,2975.24,3531.73,2975.24z"/><path fill="#E2F2E0" d="M3536.42,2989.02c-14.17,0-25.81-3.15-26.6-3.37l0.62-2.24c0.32,0.09,31.95,8.62,54.22-2.48l1.04,2.08
						C3556.45,2987.62,3545.87,2989.02,3536.42,2989.02z"/><path fill="#344F32" d="M3491.19,3023c-1.12,3.51-2.62,6-4.63,7.14c-16.53,9.53-118.03,26.72-130.64,21
						c-9.23-4.2-13.02-17.06-11.77-30.38c0,0-0.03,0,0-0.03s0.03-0.05,0.03-0.05s14.44,16.04,40.58,13.17
						c26.16-2.85,96.44-20.01,96.44-20.01L3491.19,3023z"/><path fill="#21303D" d="M3356.16,1723.37c0,0-36.78,52.31-56.39,63.75l12.26,20.43c0,0,25.34-29.42,58.84-67.83
						L3356.16,1723.37z"/><path fill="#E2F2E0" d="M3426.56,2973.21c-12.23,0-15.92-3.94-16.11-4.15l1.73-1.56c0.05,0.05,5.41,5.43,25.12,2.52l0.34,2.3
						C3433.34,2972.95,3429.67,2973.21,3426.56,2973.21z"/><path fill="#344F32" d="M3611,3038.99c-0.33,6.56-1.88,11.62-5.57,12.46c-83.91,18.79-154.47-4.09-154.47-4.09
						s-0.03-1.09-0.08-3.1v-0.2l0.05-12.64l52.2,7.35c0,0,34.86-13.91,73.28-7.35C3598.11,3035.1,3606.78,3036.88,3611,3038.99z"/><path fill="#E2F2E0" d="M3430.71,2962.65c-12.24,0-15.92-3.94-16.11-4.15l1.74-1.55l-0.87,0.77l0.86-0.79
						c0.05,0.05,5.41,5.43,25.12,2.52l0.34,2.3C3437.49,2962.39,3433.82,2962.65,3430.71,2962.65z"/><path fill="#E2F2E0" d="M3438.03,2955.01c-12.24,0-15.92-3.94-16.11-4.15l1.73-1.56c0.05,0.05,5.4,5.43,25.12,2.52l0.34,2.3
						C3444.81,2954.75,3441.14,2955.01,3438.03,2955.01z"/><path fill="#295C8F" d="M3455.59,1960.66c-43.58-26.16,23.98-346.54,23.98-346.54l12.64-304.15l1.88-1.42l94.99-72.29
						l127.03,42.79c0,0,0.71,84.47,1.83,189.17c1.45,132.57,3.56,297.62,5.8,364.56c0.23,7.22,0.48,13.3,0.74,18.08
						c0.1,1.93,0.2,3.66,0.28,5.16C3729.1,1922.52,3499.17,1986.8,3455.59,1960.66z"/><path fill="#23517D" d="M3724.47,1850.87l-173.89,56.19c0,0,134.94-83.7,129.95-136.26c-5.01-52.53-10.16-326.34-10.16-326.34
						c18.76,2.54,34.42,15.17,47.57,23.77c1.45,132.57,3.56,297.62,5.8,364.56C3723.97,1840.01,3724.22,1846.09,3724.47,1850.87z"/><path fill="#21303D" d="M3455.59,1960.66c-43.58-26.16,23.98-346.54,23.98-346.54l12.64-304.15l1.88-1.42l24.97,16.5
						c0,0-46.02,484.32-46.02,535.71c0,51.39,17.16,66.11,30.23,64.48c13.07-1.65,220.47-92.45,220.47-92.45
						c0.33,10.15,0.69,18.05,1.02,23.24C3729.1,1922.52,3499.17,1986.8,3455.59,1960.66z"/><path fill="#1F5387" d="M3485.28,1264.88c0,7.36,11.61,71.67,11.61,71.67c42.05-16.89,70.32-53.9,92.19-100.28
						c0,0-28.33-45.27-44.56-27.99C3521.09,1233.24,3485.28,1264.88,3485.28,1264.88z"/><path fill="#18426B" d="M3588.29,1237.16c-21.87,46.38-50.14,83.4-92.17,100.28c0,0-11.62-64.33-11.62-71.68
						c0,0,2.75-2.42,7.22-6.46c0.02,0.17,0.05,0.35,0.07,0.52c4.27,31.3,44.1,42.64,63.86,18c10.87-13.56,20.27-29.3,28.65-46.54
						C3586.79,1234.77,3588.29,1237.16,3588.29,1237.16z"/><path fill="#FFDAA1" d="M3675.91,1755.08l-50.98,40.56c0,0-62.36-32.23-53.19-67.1l76.19-36.51
						C3647.92,1692.04,3695.18,1732.04,3675.91,1755.08z"/><path fill="#6792BD" d="M3679.8,1762.59l-36.79-71.09l116.53-95.07l16.71-13.63l-133.23-174.09c0,0-13.45-47.47-4.12-85.28
						c7.14-28.81,27.54-52.02,77.22-44.37c0,0,163.11,180.32,181.09,281.67C3915.17,1662.08,3679.8,1762.59,3679.8,1762.59z"/><path fill="#21303D" d="M3555.71,1716.42c0,0,11.9,71.82,51.9,108.02c5.82,5.27,28-18.53,28-18.53s-55.92-49.17-55.92-89.49
						H3555.71z"/><path fill="#6792BD" d="M3533.5,1451.21c0,0,64.29,0,75.19,0c3.81,0,4.9,101.07-34.21,101.89
						C3525.49,1554.13,3533.5,1451.21,3533.5,1451.21z"/><path fill="#457AAD" d="M3574.49,1553.11c-17.01,0.36-27.16-11.82-33.13-27.89c5.52,7.2,13.02,11.72,23.11,11.52
						c29.34-0.58,34.35-61.89,33.33-85.53h10.88C3612.51,1451.2,3613.6,1552.27,3574.49,1553.11z"/><path fill="#244F80" d="M3759.54,1596.43l16.71-13.63l-133.23-174.09c0,0-13.45-47.47-4.12-85.28c0.03-0.03,0.03-0.08,0.05-0.1
						l13.07,75.59l151.19,179.79L3759.54,1596.43z"/><path fill="#23517D" d="M3316.08,1670.52l0.05,0.1c0,0-21.8-12.66-33.25-22.99c-9.56-8.62-22.12-20.69-22.12-20.69
						s16.12-8.19,17.77-17.21c1.6-8.95,36.87-167.61,37.61-170.89c-5.95,56.22-10.68,108.67-10.68,108.67l-15.46,94.23
						C3289.99,1641.74,3306.29,1653.84,3316.08,1670.52z"/><path fill="#18426B" d="M3468.35,1286.58l-12.76,49.96c0,0-24.21-26.52-31.73-61.35c-0.03-0.1-0.05-0.2-0.05-0.31
						c-1.17-6.79-1.27-9.51,0.46-4.45c6.25,18.38,27.61,45.92,27.61,45.92L3468.35,1286.58z"/><path fill="#453927" d="M3515.93,1027.05c0,0,8.08-36.78,25.49-30.65s26.41,17.98,30.49,47.81
					c4.09,29.83-11.44,97.26-26.15,103.79S3529.42,1080.08,3515.93,1027.05z"/><path fill="#453927" d="M3523.07,1062.17c0,0-1.14-1.17-3.48-2.52c-6.64-3.86-22.96-9.2-50.75,6.2
					c-37.61,20.88-68.04,25.86-69.77,22.02c-5.77-12.66,9.38-28.88,10.2-29.75c-1.02,0.58-22.71,13.5-25.32,19.6
					c-1.65,3.84-7.3,1.81-9.1-5.39c-1.17-4.5-0.81-11.04,2.97-19.43c9.81-21.79,59.75-63.46,74.63-62.24
					c14.87,1.25,54.46,7.37,70.63,29.01C3539.22,1041.34,3523.07,1062.17,3523.07,1062.17z"/><path fill="#FFDAA1" d="M3521.52,1104.69c0,0,3.52-28.72,22.74-16.81c19.21,11.91,0.71,54.41-14.01,57.68
					C3515.52,1148.82,3521.52,1104.69,3521.52,1104.69z"/><path fill="#453927" d="M3496.68,1054.3c0,0,3.31,78.99,10.67,74.09c7.36-4.9,9.2-13.1,14.57-26.02
					c5.37-12.92,16.51-18.52,8.33-34.05C3522.06,1052.79,3502.77,1045.59,3496.68,1054.3z"/></g><g><path fill="#53C272" d="M3952.63,2631.82c0.15-4.92,29.72-57.41,29.04-97.26c-0.68-39.85-47.96-45.93-49.31-43.9
								s-6.08,69.57-9.46,79.03c-3.38,9.46-16.1-77.16-45.9-93.08c-78.35-41.88-82.44,24.86-82.44,24.86s21.61,27.02,16.21,36.47
								c-5.4,9.46-31.75-28.37-64.17-36.47c-32.42-8.11-81.05,33.77-79.03,66.19c2.03,32.42,5.4,63.49,36.47,60.79
								c31.07-2.7,77.68-32.42,85.78-22.29c8.11,10.13-50.66,43.9-62.82,47.96s8.11,79.03,78.35,39.85
								c70.25-39.18,48.63-68.9,79.03-66.87c30.4,2.03-0.68,24.99-18.91,43.23c-18.24,18.24-43.23,32.42-30.4,41.88
								C3847.94,2721.66,3950.6,2697.34,3952.63,2631.82z"/><path fill="#30964C" d="M4029.91,2772.05c-0.87-77.77-46.02-134.84-134.2-169.61c-66.49-26.22-133.52-29.16-134.19-29.19
								l0.42-10.5c0.69,0.03,69.49,3.05,137.62,29.91c91.24,35.98,139.94,97.97,140.85,179.26L4029.91,2772.05z"/><path fill="#30964C" d="M3761.35,2573.25c-9.6-1.55-19.34-2.92-29.06-4.1c-9.73-1.15-19.48-2.16-29.32-2.49
								c9.75-1.41,19.62-2.17,29.48-2.76c9.88-0.57,19.72-0.95,29.68-1.13L3761.35,2573.25z"/><path fill="#30964C" d="M3936.68,2609.7c1.55-2.08,3.22-4.73,4.64-7.28c1.47-2.58,2.78-5.26,4.03-7.98
								c2.44-5.47,4.36-11.19,5.7-17.08c1.41-5.88,2.03-11.96,1.98-18.07c0.12-6.15-1.07-12.23-2.5-18.3
								c2.25,5.77,4.34,11.78,5.11,18.08l0.38,2.35l0.19,2.37c0.1,1.58,0.3,3.18,0.32,4.77l-0.01,4.79c0.02,1.61-0.2,3.19-0.28,4.79
								c-0.53,6.39-1.7,12.76-3.48,18.97c-0.92,3.1-1.92,6.19-3.12,9.22c-0.59,1.52-1.21,3.03-1.9,4.53
								c-0.69,1.53-1.36,2.94-2.28,4.6L3936.68,2609.7z"/><path fill="#30964C" d="M3861.68,2586.33c1.19-7.44,1.93-15.33,2.3-23.07c0.35-7.77,0.31-15.58-0.36-23.33
								c-0.66-7.75-1.97-15.45-4.44-22.83c-2.55-7.28-6.39-14.4-12.67-19.34c6.81,4.21,11.65,11.11,15.11,18.35
								c3.4,7.34,5.64,15.17,7.21,23.08c1.58,7.92,2.51,15.95,3.03,23.99c0.5,8.09,0.66,16.04,0.26,24.34L3861.68,2586.33z"/><path fill="#30964C" d="M3941.52,2621.39c-2.08,4.2-4.24,7.95-6.55,11.79c-2.3,3.8-4.72,7.51-7.26,11.14
								c-5.1,7.24-10.62,14.18-16.77,20.54c-6.12,6.37-12.87,12.18-20.31,16.92c-3.74,2.33-7.61,4.44-11.67,6.11
								c-4.06,1.65-8.26,2.91-12.52,3.72c4.17-1.24,8.16-2.9,11.96-4.9c3.79-2.03,7.34-4.46,10.71-7.07
								c6.71-5.3,12.61-11.53,17.86-18.23c5.28-6.69,9.89-13.88,14.06-21.28c4.11-7.38,7.89-15.21,10.81-22.84L3941.52,2621.39z"/><path fill="#30964C" d="M3781.53,2653.63c2.05-0.44,3.87-1.54,5.69-2.53c1.82-1.02,3.59-2.14,5.34-3.26
								c3.5-2.28,6.91-4.69,10.25-7.18c6.67-5,13.1-10.31,19.13-15.97c6.04-5.65,11.71-11.67,16.52-18.12
								c2.39-3.23,4.51-6.59,6.15-10.02c1.64-3.41,2.74-6.94,2.87-10.11l10.45,1.06c-0.81,5.18-2.89,9.58-5.27,13.48
								c-2.41,3.9-5.19,7.38-8.13,10.6c-5.93,6.42-12.44,11.99-19.21,17.12c-6.77,5.14-13.82,9.81-21.06,14.14
								c-3.63,2.15-7.3,4.21-11.05,6.13c-1.88,0.95-3.77,1.88-5.71,2.71C3785.58,2652.49,3783.63,2653.41,3781.53,2653.63z"/><path fill="#65C780" d="M4015,2467.23c0.79-3.97,114.15-77,54.71-151.98c-59.44-74.97-80.38-62.82-77.68-44.58
								s14.86,141.17-4.05,109.42c-18.91-31.75,2.7-120.91-24.32-142.52c-27.02-21.61-131.71-73.62-141.17-45.93
								c-9.46,27.69,20.94,81.05,26.34,91.86c5.4,10.81-47.28,13.51-52.68-62.14c-5.4-75.65-95.91-66.19-145.9-20.26
								s-32.42,125.63,0,145.9c32.42,20.26,75.65-17.56,86.46,10.81c10.81,28.37-49.98,10.81-64.84,29.72
								c-14.86,18.91,41.88,110.77,81.05,106.72c39.18-4.05,63.49-52.68,125.63-45.93c62.14,6.75-15.54,22.29-48.63,38.5
								s-74.3,35.12-31.75,47.28C3840.73,2546.26,3995.41,2565.84,4015,2467.23z"/><path fill="#30964C" d="M4107.75,2796.38l-16.57-2.84c23.93-139.54-21.5-263.75-135.02-369.2
								c-85.27-79.2-179.05-117.44-179.99-117.81l6.27-15.6c3.93,1.58,97.24,39.56,184.79,120.74
								c51.61,47.85,90.24,100.77,114.81,157.26C4112.83,2639.74,4121.48,2716.27,4107.75,2796.38z"/><polygon fill="#30964C" points="3778.26 2307.65 3699.6 2257.75 3785.94 2292.69"/><path fill="#30964C" d="M3886.01,2362.29c2.32-9.84,4.28-20.16,5.97-30.35c1.67-10.24,3.12-20.53,4.06-30.87
								c0.92-10.33,1.65-20.74,1.45-31.13c-0.18-10.39-0.91-20.83-3.2-31.09c3.64,9.87,5.8,20.29,7.39,30.76
								c1.61,10.49,2.28,21.09,2.76,31.69c0.45,10.61,0.39,21.23,0.09,31.86c-0.34,10.66-0.89,21.16-1.96,32L3886.01,2362.29z"/><path fill="#30964C" d="M3991.08,2444.85c3.06-3.4,6.22-7.23,9.22-10.98c3.02-3.78,5.97-7.64,8.83-11.56
								c5.73-7.84,11.14-15.93,16.05-24.32c4.9-8.39,9.36-17.07,12.86-26.16c3.53-9.07,6.07-18.61,6.48-28.51
								c1,9.86-0.18,19.99-2.46,29.74c-2.25,9.8-5.54,19.34-9.34,28.65c-3.81,9.32-8.17,18.4-12.9,27.29
								c-2.37,4.45-4.83,8.85-7.39,13.2c-2.59,4.38-5.15,8.6-8.11,13.02L3991.08,2444.85z"/><path fill="#30964C" d="M3888.13,2367.86c-1.24-0.2-3.01-0.41-4.59-0.54c-1.62-0.15-3.27-0.26-4.92-0.34
								c-3.31-0.16-6.65-0.24-9.99-0.18c-6.7,0.06-13.42,0.57-20.12,1.41c-13.4,1.67-26.67,4.9-39.46,9.62
								c-12.8,4.71-25.06,11.05-36.52,18.74c-11.38,7.8-21.93,16.96-31.39,27.24c8.38-11.17,18.05-21.47,28.86-30.59
								c10.89-9.01,22.88-16.85,35.74-23.1c12.85-6.27,26.48-11.09,40.55-14.31c7.03-1.61,14.17-2.88,21.4-3.68
								c3.61-0.42,7.25-0.7,10.92-0.9c1.84-0.09,3.68-0.15,5.54-0.17c1.91-0.02,3.62-0.02,5.85,0.11L3888.13,2367.86z"/><path fill="#30964C" d="M3989.44,2446.98c-0.73,1.46-1.31,2.42-1.98,3.56c-0.66,1.1-1.32,2.16-2.01,3.2
								c-1.37,2.09-2.79,4.12-4.28,6.09c-2.97,3.94-6.15,7.68-9.55,11.21c-6.79,7.04-14.45,13.2-22.77,18.14
								c-4.18,2.44-8.51,4.57-12.95,6.4c-4.48,1.74-9.03,3.19-13.65,4.25c-9.26,2.09-18.71,2.64-27.94,1.99
								c9.24-0.75,18.29-2.71,26.71-6.01c4.21-1.66,8.24-3.67,12.12-5.89c3.83-2.31,7.49-4.86,10.93-7.64
								c6.85-5.63,12.83-12.17,17.88-19.31c2.53-3.57,4.82-7.29,6.87-11.11c1.03-1.9,1.99-3.84,2.87-5.78
								c0.45-0.97,0.87-1.94,1.26-2.91c0.38-0.92,0.81-2.03,1-2.69L3989.44,2446.98z"/><g><path fill="#64C287" d="M4200.47,2641.07c0,0-72.62-43.65-61.81-84.18c7.19-26.97,32.19-55.14,48.11-70.97
								c5.32-5.29,14.38-1.87,14.87,5.61c1.82,27.69,9.38,61.27,11.32,60.62c2.7-0.9,4.42-81.89,11.26-90.28
								c33.77-41.43,111.94-43.59,116.63-38.73c7.61,7.89-6.29,40.11-17.77,63.12c-1.85,3.72,3.02,7.1,5.84,4.05l71.81-77.53
								c0,0,99.52,8.94,87.81,84.66c-6.75,43.68-22.97,41.88-22.97,41.88l-71.66,5.05c-4.87,0.34-5.61,7.19-0.93,8.57l43.95,12.93
								c12.4,3.65,17.64,18.31,10.37,29c-16.55,24.32-43.55,60.66-58.73,63.34c-19.18,3.39-88.31-30.61-110.57-41.91
								c-3.5-1.77-7.02,2.81-4.2,5.54c0.03,0.02,0.05,0.05,0.08,0.07c14.34,13.13,45.8,16.5,72.82,36.53
								c27.02,20.03-1.35,40.29-10.81,40.29C4326.43,2698.73,4237.97,2707.69,4200.47,2641.07z"/><path fill="#30964C" d="M4150.16,2835.56c-0.35-1.22-8.5-30.37-4.04-73.09c4.11-39.28,20.2-97.9,73.52-154.08l0.58-0.54
									c3.47-2.85,85.42-69.88,117.9-88.83l6.35,10.89c-30.66,17.88-110.35,82.86-115.95,87.44
									c-50.48,53.32-65.82,108.73-69.79,145.85c-4.33,40.43,3.48,68.61,3.56,68.89L4150.16,2835.56z"/><polygon fill="#30964C" points="4338.13 2519.01 4422.34 2477.52 4344.45 2529.92"/><path fill="#30964C" d="M4278.69,2565.53c-0.71-8.68-1.04-17.1-1.22-25.64c-0.15-8.51-0.11-17.02,0.26-25.51
									c0.77-16.95,2.48-34.02,7.19-50.24c-2.64,16.67-2.2,33.48-0.89,50.12c0.68,8.32,1.69,16.62,2.86,24.88
									c1.2,8.22,2.59,16.54,4.26,24.52L4278.69,2565.53z"/><path fill="#30964C" d="M4214.54,2622c-4.91-6.78-9.33-13.54-13.65-20.51c-4.27-6.96-8.34-14.05-12.02-21.35
									c-3.68-7.29-7.03-14.77-9.58-22.55c-2.47-7.73-4.47-15.93-3.49-24.01c0.09,8.1,3.07,15.69,6.42,22.84
									c3.44,7.16,7.61,13.95,12.09,20.52c4.47,6.57,9.3,12.91,14.3,19.08c5,6.14,10.27,12.24,15.59,17.87L4214.54,2622z"/><path fill="#30964C" d="M4300.47,2553.62c6.43,4.71,13.3,9.29,20.16,13.66c6.9,4.36,13.9,8.58,21.1,12.46
									c7.2,3.85,14.49,7.6,22.06,10.69c7.56,3.1,15.32,5.84,23.43,7.44c-8.25-0.56-16.42-2.3-24.46-4.46
									c-8.06-2.15-15.9-4.98-23.69-7.96c-7.79-2.99-15.42-6.35-22.99-9.88c-7.58-3.57-14.98-7.23-22.46-11.36L4300.47,2553.62z"/><path fill="#30964C" d="M4217.87,2621.44c7,4.99,14.62,9.83,22.23,14.34c7.65,4.53,15.49,8.77,23.48,12.75
									c7.97,4.02,16.15,7.64,24.46,10.96c8.3,3.39,16.84,6.13,25.48,8.68c-8.86-1.52-17.75-3.26-26.47-5.68
									c-8.74-2.35-17.41-5.04-25.95-8.15c-8.54-3.08-17-6.45-25.33-10.14c-8.36-3.73-16.48-7.61-24.73-12.15L4217.87,2621.44z"/></g><g><path fill="#6DD494" d="M4097.63,2564.48c0,0-86.64-16.85-90.5-60.37c-2.57-28.96,11.86-65.44,21.8-86.61
								c3.32-7.07,13.41-6.96,16.56,0.2c11.65,26.46,31.01,56.63,32.68,55.3c2.32-1.84-24.86-81.73-21.16-92.38
								c18.29-52.58,94.03-82.56,100.36-79.47c10.26,5.01,8.13,41.5,5.1,68.11c-0.49,4.3,5.49,5.87,7.16,1.88l42.66-101.48
								c0,0,100.59-26.72,116.12,51.57c8.96,45.16-7.55,49.17-7.55,49.17l-68.34,30.48c-4.64,2.07-2.93,9.04,2.15,8.72l47.62-3.01
								c13.44-0.85,23.79,11.64,20.48,24.69c-7.53,29.7-21.01,74.9-34.91,82.93c-17.57,10.15-97.35,1.51-123.16-1.62
								c-4.06-0.49-5.87,5.26-2.14,6.92c0.03,0.01,0.07,0.03,0.1,0.04c18.72,7.74,50.71-0.17,84.29,9.81s13.04,39.92,3.78,43.29
								C4241.47,2576.03,4158.08,2616.32,4097.63,2564.48z"/><path fill="#30964C" d="M4117.7,2772.77c-0.78-1.07-19.15-26.7-30-70.1c-9.98-39.91-15.12-103.03,17.05-177.02l0.37-0.73
									c2.38-4.02,58.7-98.84,83.74-128.96l10.1,8.4c-23.64,28.43-78.48,120.43-82.34,126.91
									c-30.41,70.18-25.67,129.88-16.34,167.63c10.17,41.12,27.86,65.92,28.03,66.16L4117.7,2772.77z"/><polygon fill="#30964C" points="4188.88 2395.95 4256.52 2325.33 4198.95 2404.37"/><path fill="#30964C" d="M4147.28,2462.65c-3.78-8.24-7.11-16.37-10.33-24.66c-3.18-8.28-6.17-16.62-8.84-25.07
									c-5.29-16.87-9.69-34.18-10.87-51.74c3.35,17.26,9.78,33.56,16.99,49.37c3.63,7.91,7.57,15.67,11.67,23.33
									c4.11,7.62,8.43,15.27,12.91,22.48L4147.28,2462.65z"/><path fill="#30964C" d="M4104.61,2540.79c-7.22-4.89-13.96-9.92-20.67-15.21c-6.66-5.29-13.17-10.78-19.37-16.61
									c-6.2-5.82-12.14-11.96-17.42-18.65c-5.17-6.69-10.05-14-11.97-22.25c2.98,7.9,8.59,14.26,14.42,20.06
									c5.92,5.78,12.42,10.94,19.14,15.77c6.72,4.84,13.7,9.32,20.8,13.58c7.08,4.23,14.41,8.32,21.62,11.94L4104.61,2540.79z"/><path fill="#30964C" d="M4164.35,2443.24c7.97,2.32,16.33,4.35,24.6,6.18c8.3,1.81,16.67,3.44,25.09,4.67
									c8.42,1.21,16.89,2.28,25.41,2.61c8.51,0.34,17.08,0.25,25.59-1.07c-8.27,2.39-16.89,3.6-25.53,4.35
									c-8.65,0.77-17.34,0.79-26.02,0.65c-8.69-0.15-17.36-0.72-26.02-1.48c-8.69-0.79-17.24-1.74-26.04-3.12L4164.35,2443.24z"/><path fill="#30964C" d="M4107.67,2539.06c8.63,2.39,17.81,4.41,26.87,6.11c9.11,1.7,18.29,3.07,27.53,4.12
									c9.23,1.09,18.53,1.72,27.85,2.01c9.33,0.36,18.67,0,28.03-0.59c-9.22,1.67-18.54,3.14-27.94,3.87
									c-9.39,0.81-18.84,1.27-28.3,1.26c-9.46,0.03-18.94-0.25-28.41-0.9c-9.51-0.67-18.84-1.58-28.54-3.08L4107.67,2539.06z"/></g><g><path fill="#EB9E5E" d="M4067.12,2749.7h215.47c0,118.2-97.27,215.47-215.47,215.47s-215.47-97.27-215.47-215.47
								c0-0.12,0-0.23,0-0.35L4067.12,2749.7z"/><path fill="#D68F56" d="M3851.65,2749.53c0,118.2,97.25,215.48,215.46,215.48c58.86,0,112.53-24.12,151.57-62.94
								c-33.66,21.83-73.7,34.57-116.44,34.57c-108.6,0-199.53-82.1-213.59-187.11H3851.65z"/><path fill="#F0C6A3" d="M4214.29,2749.7h35.35c0,0-11.71,82.18-81.05,114.6C4168.58,2864.31,4227.38,2809.44,4214.29,2749.7z
								"/><path fill="#9C551A" d="M4189.06,2998.04h-243.87c-4.65,0-8.42-3.77-8.42-8.42v-28.63c0-4.65,3.77-8.42,8.42-8.42h243.87
								c4.65,0,8.42,3.77,8.42,8.42v28.63C4197.48,2994.27,4193.71,2998.04,4189.06,2998.04z"/><path fill="#804615" d="M4195.69,2984.17c-1.16,2.7-2.83,5.16-4.89,7.21c-4.1,4.13-9.77,6.67-16.06,6.67H3959.5
								c-12.55,0-22.73-10.18-22.73-22.73c0-6.29,2.54-11.99,6.67-16.09c4.1-4.13,9.77-6.67,16.06-6.67h0.24
								c-1.13,2.73-1.78,5.7-1.78,8.85c0,12.58,10.18,22.76,22.73,22.76H4195.69z"/></g></g></svg>